HIERARCHY
ROOT Hips
{
 OFFSET 0.000000 0.000000 0.000000
 CHANNELS 6 Xposition Yposition Zposition Yrotation Xrotation Zrotation
 JOINT Chest
 {
  OFFSET 0.000000 12.953391 -0.028419
  CHANNELS 3 Yrotation Xrotation Zrotation
  JOINT Chest2
  {
   OFFSET 0.000000 10.280254 0.051622
   CHANNELS 3 Yrotation Xrotation Zrotation
   JOINT Chest3
   {
    OFFSET 0.000000 9.287180 0.000000
    CHANNELS 3 Yrotation Xrotation Zrotation
    JOINT Chest4
    {
     OFFSET 0.000000 9.287180 0.000000
     CHANNELS 3 Yrotation Xrotation Zrotation
     JOINT Neck
     {
      OFFSET 0.000000 13.296264 0.000000
      CHANNELS 3 Yrotation Xrotation Zrotation
      JOINT Head
      {
       OFFSET 0.000000 8.959264 0.099003
       CHANNELS 3 Yrotation Xrotation Zrotation
       End Site
       {
        OFFSET 0.000000 17.121337 0.039303
       }
      }
     }
     JOINT RightCollar
     {
      OFFSET -3.193511 7.451388 0.000000
      CHANNELS 3 Yrotation Xrotation Zrotation
      JOINT RightShoulder
      {
       OFFSET -15.792092 0.000000 0.000000
       CHANNELS 3 Yrotation Xrotation Zrotation
       JOINT RightElbow
       {
        OFFSET -31.151839 0.000000 0.000000
        CHANNELS 3 Yrotation Xrotation Zrotation
        JOINT RightWrist
        {
         OFFSET -25.536298 0.000000 0.002321
         CHANNELS 3 Yrotation Xrotation Zrotation
         End Site
         {
          OFFSET -19.133213 0.000000 0.000000
         }
        }
       }
      }
     }
     JOINT LeftCollar
     {
      OFFSET 3.193511 7.451388 0.000000
      CHANNELS 3 Yrotation Xrotation Zrotation
      JOINT LeftShoulder
      {
       OFFSET 15.792092 0.000000 0.000000
       CHANNELS 3 Yrotation Xrotation Zrotation
       JOINT LeftElbow
       {
        OFFSET 31.151839 0.000000 0.000000
        CHANNELS 3 Yrotation Xrotation Zrotation
        JOINT LeftWrist
        {
         OFFSET 25.536298 0.000000 0.002321
         CHANNELS 3 Yrotation Xrotation Zrotation
         End Site
         {
          OFFSET 19.133213 0.000000 0.000000
         }
        }
       }
      }
     }
    }
   }
  }
 }
 JOINT RightHip
 {
  OFFSET -10.745749 0.139252 0.014209
  CHANNELS 3 Yrotation Xrotation Zrotation
  JOINT RightKnee
  {
   OFFSET 0.000000 -43.743899 -0.006071
   CHANNELS 3 Yrotation Xrotation Zrotation
   JOINT RightAnkle
   {
    OFFSET 0.000000 -43.214199 0.089931
    CHANNELS 3 Yrotation Xrotation Zrotation
    JOINT RightToe
    {
     OFFSET 0.000000 -9.699830 19.151588
     CHANNELS 3 Yrotation Xrotation Zrotation
     End Site
     {
      OFFSET 0.000000 -1.292898 4.893873
     }
    }
   }
  }
 }
 JOINT LeftHip
 {
  OFFSET 10.745749 0.139252 0.014209
  CHANNELS 3 Yrotation Xrotation Zrotation
  JOINT LeftKnee
  {
   OFFSET 0.000000 -43.743899 -0.006071
   CHANNELS 3 Yrotation Xrotation Zrotation
   JOINT LeftAnkle
   {
    OFFSET 0.000000 -43.214199 0.089931
    CHANNELS 3 Yrotation Xrotation Zrotation
    JOINT LeftToe
    {
     OFFSET 0.000000 -9.699830 19.151588
     CHANNELS 3 Yrotation Xrotation Zrotation
     End Site
     {
      OFFSET 0.000000 -1.292898 4.893873
     }
    }
   }
  }
 }
}
MOTION
Frames: 5
Frame Time: 0.016667
-156.677344 102.694337 -59.355794 -174.866039 6.559868 2.972334 0.838689 5.668456 -0.317106 0.376159 2.518739 -0.151014 0.376159 2.518739 -0.151014 0.282696 1.888962 -0.114794 -3.230764 19.884841 3.926991 -7.091052 1.083593 8.148660 7.241434 0.668951 7.857305 -13.412482 17.882559 45.435310 97.365126 18.732009 42.267336 25.157213 20.347453 5.719397 -5.501937 3.549983 -6.705415 8.416963 14.818467 -46.583558 -120.752673 37.998027 -65.178761 -6.551633 17.782366 43.214257 -8.656017 -26.821231 4.958841 -1.936908 55.717844 -0.573367 11.773160 10.977761 5.841272 0.000000 0.000000 0.000000 13.240555 -22.760979 6.553023 -2.075225 11.173112 -2.600000 -5.387815 16.129984 -12.499620 -0.000000 0.000000 -0.000000
-156.910914 101.965627 -61.484956 -176.419976 6.334528 2.914692 0.892900 5.884306 -0.330655 0.400586 2.614565 -0.158104 0.400635 2.614537 -0.158113 0.301132 1.960782 -0.120286 -3.058533 19.802858 3.769424 -6.736001 0.900903 7.815334 6.930135 0.195001 7.878020 -12.880162 18.457772 45.460933 97.233614 18.973018 42.207901 25.547711 20.228173 5.234977 -5.862946 4.051305 -6.899288 8.044094 14.494450 -46.269493 -119.858012 37.927915 -64.866521 -6.469528 17.675652 44.130858 -8.806159 -29.372475 4.443355 -1.614176 59.018732 -1.104377 11.361644 9.245768 5.142117 0.151179 1.597242 0.985039 12.569785 -22.797526 7.164051 -1.690699 11.046030 -2.254622 -4.833204 18.147019 -13.016156 -0.000000 0.000000 0.000000
-157.164189 100.971694 -63.643095 -178.138268 6.049793 2.910763 0.966531 6.145100 -0.341517 0.433530 2.730394 -0.164378 0.433571 2.730363 -0.164380 0.325877 2.047635 -0.125202 -2.854056 19.746687 3.578105 -6.309566 0.762228 7.408382 6.390027 0.059407 7.852510 -11.753301 19.033428 45.952956 96.903121 19.415295 41.617947 26.118182 20.168629 4.822080 -6.392983 4.999614 -7.319386 7.542861 13.627876 -45.891938 -118.724697 38.046729 -64.584502 -6.555959 17.553316 45.304979 -9.632442 -31.782137 4.137819 -0.853375 61.397880 -1.684271 10.326906 7.553488 3.436140 -0.042669 1.371243 0.306454 12.390222 -22.934854 7.576476 -1.419397 12.058040 -1.678905 -3.648721 19.898859 -13.791990 -0.000000 0.000000 -0.000000
-157.442023 99.728818 -65.796697 -179.871902 5.733785 2.971888 1.027062 6.381039 -0.323366 0.460196 2.835298 -0.157631 0.460196 2.835298 -0.157631 0.345808 2.126357 -0.120336 -2.677640 19.667960 3.330652 -5.918311 0.581092 6.908926 5.838007 -0.216603 7.771193 -10.705818 19.832089 46.324517 96.757529 19.722063 40.988310 26.509012 20.242969 4.193031 -6.667879 5.242050 -7.519488 6.951359 13.582701 -45.714259 -117.808981 38.345260 -64.235643 -6.774406 17.557984 46.081729 -10.368506 -34.206159 3.739712 -0.198463 63.183838 -2.371341 8.597070 5.859795 1.604512 0.000000 0.000000 0.000000 12.353378 -23.031127 7.921294 -1.318014 14.327524 -1.076319 -2.538573 18.822979 -14.552012 -0.000000 0.000000 0.000000
-157.807775 98.099461 -67.954528 178.248987 5.369266 3.100725 1.115047 6.556560 -0.256863 0.498374 2.913349 -0.129755 0.498366 2.913308 -0.129762 0.374306 2.184847 -0.099683 -2.551954 19.560779 2.985775 -5.590275 0.345364 6.247900 5.349108 -0.872409 7.589499 -9.938688 21.144953 46.264534 97.093384 19.689754 40.491436 26.335474 20.597123 2.964009 -6.351377 3.994786 -7.159589 6.184913 15.288539 -46.035164 -117.408994 38.956923 -63.752330 -7.156892 17.788889 46.101475 -10.788031 -36.778951 3.158136 0.208529 64.585147 -3.187443 5.730388 4.016837 -0.285623 0.482807 -3.296028 1.268753 12.108526 -22.990366 8.355198 -1.360039 18.466483 -0.535814 -1.444616 12.703374 -15.351089 0.000000 0.000000 0.000000
